<svg version="1" xmlns="http://www.w3.org/2000/svg" width="682.667" height="682.667" viewBox="0 0 512.000000 512.000000"><path d="M232.5 5.1c-57.9 5.5-112.9 31.5-154.4 73-98.7 98.7-98.7 258.1 0 356.8 78 78 197 96.4 294.8 45.5 123.7-64.3 171.8-216.7 107.5-340.3C433 49 334.7-4.6 232.5 5.1zm27.6 111.2c10.9 2.9 22.1 7.7 30.6 13.4 7.7 5.1 18.8 15.6 22.9 21.8l3.4 5V117h86v279h-86v-39.2l-4.6 6.1c-10 13.4-26.6 25.1-44 31.2-22 7.6-52.1 7.7-74.3.3-17.6-5.9-31.4-14.5-45.2-28.3-27-27-40.9-64.5-40.9-110.1 0-75.3 40.1-130.5 102.7-141.6 12.5-2.2 37.4-1.2 49.4 1.9z"/><path d="M240.1 189.6c-15.5 4.2-29.8 16-37 30.5-6.2 12.7-7.5 19-7.5 35.9 0 24.2 4.9 37.6 18.8 51.5 12.8 12.7 24.1 17.5 41.6 17.5 5.1 0 11.9-.7 15.3-1.6 20.9-5.4 36.8-21.8 42.9-44.3 3-10.9 3-34.3 0-45.2-6.1-22.5-22-38.9-42.9-44.3-7.6-2-23.9-2-31.2 0z"/></svg>